<?xml version="1.0" standalone="no"?>
<!DOCTYPE svg PUBLIC "-//W3C//DTD SVG 20010904//EN"
 "http://www.w3.org/TR/2001/REC-SVG-20010904/DTD/svg10.dtd">
<svg version="1.0" xmlns="http://www.w3.org/2000/svg"
 width="169.000000pt" height="213.000000pt" viewBox="0 0 169.000000 213.000000"
 preserveAspectRatio="xMidYMid meet">

<g transform="translate(0.000000,213.000000) scale(0.100000,-0.100000)"
fill="#000000" stroke="none">
<path d="M835 2086 c-72 -32 -115 -99 -124 -191 -5 -54 -9 -61 -40 -82 -51
-34 -77 -38 -135 -18 -169 58 -325 -97 -271 -269 l17 -54 -29 -72 c-28 -70
-31 -73 -78 -91 -128 -48 -179 -176 -119 -298 28 -56 80 -99 135 -110 35 -7
36 -8 75 -99 l27 -62 -19 -42 c-12 -26 -18 -63 -18 -99 3 -192 237 -279 371
-138 54 57 66 121 41 213 l-12 44 48 56 c63 74 77 81 132 66 l44 -13 0 -187 0
-188 -25 -6 c-40 -10 -102 -73 -121 -122 -21 -56 -14 -140 16 -189 49 -79 143
-119 227 -97 103 28 155 96 163 216 l5 80 88 63 88 64 43 -20 c24 -12 62 -21
87 -21 122 1 235 126 214 239 -27 142 -160 223 -290 176 l-40 -15 -70 70 -69
69 12 46 c15 57 15 117 0 167 -11 36 -10 40 18 69 16 17 46 44 66 60 l37 30
50 -17 c67 -21 127 -12 188 29 84 57 116 163 78 255 -72 170 -319 170 -389 0
-18 -42 -21 -124 -6 -162 8 -23 5 -28 -28 -53 -20 -15 -51 -40 -69 -56 l-31
-29 -32 22 c-17 12 -46 26 -65 31 l-35 10 0 159 0 159 44 30 c115 79 134 220
42 319 -22 25 -55 51 -73 58 -41 18 -129 17 -168 0z m142 -106 c71 -43 63
-154 -13 -186 -42 -18 -83 -8 -121 28 -29 27 -32 101 -5 135 34 44 90 53 139
23z m-157 -278 c35 -18 55 -35 54 -45 -1 -9 -2 -79 -3 -155 l-1 -138 -42 -19
-41 -18 -64 69 c-59 65 -63 71 -56 104 4 19 7 66 8 104 0 65 2 70 35 97 19 16
39 29 45 29 6 0 35 -13 65 -28z m-299 -19 c66 -39 60 -151 -9 -180 -75 -31
-148 19 -146 101 3 77 86 120 155 79z m1005 -94 c23 -24 29 -39 29 -75 0 -39
-5 -50 -33 -75 -85 -76 -208 6 -172 116 15 46 44 65 100 65 39 0 51 -5 76 -31z
m-892 -258 l69 -69 -22 -48 -22 -47 -102 6 c-85 4 -104 8 -112 24 -5 10 -31
39 -58 65 l-48 46 17 41 16 40 61 -5 c34 -3 73 -1 87 4 40 17 42 16 114 -57z
m372 -100 c61 -28 89 -73 89 -143 0 -42 -6 -64 -21 -85 -32 -42 -81 -67 -133
-67 -94 1 -155 64 -155 161 0 64 22 99 84 131 53 27 82 27 136 3z m-687 -45
c30 -31 40 -106 18 -139 -55 -84 -197 -40 -197 62 0 93 113 142 179 77z m362
-181 c10 -27 19 -56 19 -63 0 -7 -28 -42 -62 -77 l-63 -64 -95 7 -94 7 -20 47
-19 47 32 27 c18 14 43 49 57 76 l25 49 100 -3 101 -3 19 -50z m518 -199 c55
-58 61 -68 54 -93 -4 -15 -7 -62 -6 -103 l1 -75 -78 -57 c-43 -32 -83 -58 -90
-58 -6 0 -29 9 -51 20 l-39 21 2 181 3 182 34 9 c19 5 44 15 55 23 34 24 50
17 115 -50z m327 -100 c100 -100 -45 -248 -149 -152 -34 31 -43 82 -23 130 17
40 42 54 100 55 30 1 45 -6 72 -33z m-997 -11 c32 -16 41 -39 41 -103 0 -33
-6 -48 -25 -66 -55 -51 -141 -37 -172 28 -45 95 61 191 156 141z m484 -375
c45 -51 31 -138 -28 -170 -34 -18 -89 -16 -121 5 -66 43 -54 164 20 196 40 17
99 3 129 -31z"/>
</g>
</svg>
